<?xml version="1.0" encoding="utf-8"?>
<!-- Generator: Adobe Illustrator 16.0.0, SVG Export Plug-In . SVG Version: 6.00 Build 0)  -->
<!DOCTYPE svg PUBLIC "-//W3C//DTD SVG 1.1//EN" "http://www.w3.org/Graphics/SVG/1.1/DTD/svg11.dtd">
<svg version="1.1" id="レイヤー_1" xmlns="http://www.w3.org/2000/svg" xmlns:xlink="http://www.w3.org/1999/xlink" x="0px"
	 y="0px" width="54.582px" height="55.511px" viewBox="0 0 54.582 55.511" enable-background="new 0 0 54.582 55.511"
	 xml:space="preserve">
<g>
	<path d="M38.894,0H15.687C7.022,0,0,7.023,0,15.688v24.136c0,8.663,7.022,15.688,15.687,15.688h23.207
		c8.665,0,15.688-7.023,15.688-15.688V15.688C54.582,7.023,47.559,0,38.894,0z M5.569,15.688c0-5.579,4.54-10.118,10.118-10.118
		h23.207c5.578,0,10.119,4.539,10.119,10.118v24.136c0,5.579-4.541,10.117-10.119,10.117H15.687
		c-5.578,0-10.118-4.538-10.118-10.117V15.688z"/>
	<path d="M27.292,42.05c7.881,0,14.295-6.412,14.295-14.294c0-7.883-6.414-14.296-14.295-14.296
		c-7.883,0-14.298,6.413-14.298,14.296C12.994,35.638,19.409,42.05,27.292,42.05z M27.292,17.916c5.426,0,9.838,4.413,9.838,9.84
		c0,5.426-4.412,9.841-9.838,9.841c-5.428,0-9.84-4.415-9.84-9.841C17.452,22.329,21.864,17.916,27.292,17.916z"/>
	<circle cx="42.005" cy="13.043" r="3.203"/>
</g>
</svg>
